<svg width="8" height="5" viewBox="0 0 8 5" fill="none" xmlns="http://www.w3.org/2000/svg">
<path d="M3.59649 3.15029L3.41971 2.97351L0.775517 0.329316C0.775508 0.329307 0.775499 0.329298 0.77549 0.32929C0.728692 0.282519 0.665236 0.256246 0.599072 0.256246C0.53292 0.256246 0.469476 0.282509 0.42268 0.329263C0.422671 0.329272 0.422662 0.329281 0.422653 0.32929C0.422644 0.329298 0.422635 0.329307 0.422627 0.329316C0.375873 0.376112 0.349609 0.439557 0.349609 0.505708C0.349609 0.571872 0.375883 0.635328 0.422653 0.682127L0.245877 0.858903L0.42268 0.682153L3.59649 3.15029ZM3.59649 3.15029L3.77326 2.97351L6.41748 0.32929L6.41751 0.329316L6.42053 0.32619C6.44355 0.302354 6.47109 0.283342 6.50154 0.270262C6.53199 0.257182 6.56473 0.250297 6.59787 0.250009C6.63101 0.249721 6.66387 0.256036 6.69454 0.268585C6.72521 0.281134 6.75308 0.299665 6.77651 0.323098C6.79995 0.346531 6.81848 0.374396 6.83103 0.405066C6.84357 0.435736 6.84989 0.468599 6.8496 0.501737C6.84931 0.534874 6.84243 0.567622 6.82935 0.598073C6.81627 0.628522 6.79725 0.656061 6.77342 0.679081L6.77339 0.679054L6.77032 0.682127L3.77293 3.67952L3.59649 3.15029ZM3.42004 3.67952L3.24329 3.85632L3.42007 3.67954C3.42006 3.67953 3.42005 3.67952 3.42004 3.67952Z" fill="#0D0D0D" stroke="black" stroke-width="0.5"/>
</svg>
