<svg width="20" height="20" viewBox="0 0 20 20" fill="none" xmlns="http://www.w3.org/2000/svg">
<g clip-path="url(#clip0_103_1039)">
<path d="M10 1.80078C12.6719 1.80078 12.9883 1.8125 14.0391 1.85937C15.0157 1.90234 15.543 2.06641 15.8945 2.20312C16.3594 2.38282 16.6953 2.60157 17.043 2.94922C17.3945 3.30078 17.6094 3.63282 17.7891 4.09766C17.9258 4.44922 18.0898 4.98047 18.1328 5.95312C18.1797 7.00781 18.1914 7.32422 18.1914 9.99217C18.1914 12.6641 18.1797 12.9805 18.1328 14.0312C18.0898 15.0078 17.9258 15.5352 17.7891 15.8867C17.6094 16.3516 17.3906 16.6875 17.043 17.0352C16.6914 17.3867 16.3594 17.6016 15.8945 17.7812C15.543 17.918 15.0118 18.082 14.0391 18.125C12.9844 18.1718 12.668 18.1836 10 18.1836C7.32812 18.1836 7.01172 18.1718 5.96094 18.125C4.98438 18.082 4.45703 17.918 4.10547 17.7812C3.64062 17.6016 3.30469 17.3828 2.95703 17.0352C2.60547 16.6836 2.39062 16.3516 2.21094 15.8867C2.07422 15.5352 1.91016 15.0039 1.86719 14.0312C1.82032 12.9766 1.80859 12.6602 1.80859 9.99217C1.80859 7.32032 1.82032 7.00391 1.86719 5.95312C1.91016 4.97656 2.07422 4.44922 2.21094 4.09766C2.39062 3.63282 2.60938 3.29687 2.95703 2.94922C3.30859 2.59766 3.64062 2.38282 4.10547 2.20312C4.45703 2.06641 4.98828 1.90234 5.96094 1.85937C7.01172 1.8125 7.32812 1.80078 10 1.80078ZM10 0C7.28516 0 6.94532 0.0117188 5.87891 0.0585937C4.81641 0.105469 4.08594 0.277343 3.45312 0.523437C2.79297 0.78125 2.23438 1.12109 1.67969 1.67968C1.12109 2.23437 0.78125 2.79297 0.523438 3.44922C0.277343 4.08594 0.105469 4.8125 0.0585938 5.875C0.0117188 6.94531 0 7.28516 0 10C0 12.7148 0.0117188 13.0547 0.0585938 14.1211C0.105469 15.1836 0.277343 15.9141 0.523438 16.5469C0.78125 17.207 1.12109 17.7657 1.67969 18.3203C2.23438 18.875 2.79297 19.2187 3.44922 19.4727C4.08594 19.7187 4.8125 19.8906 5.875 19.9375C6.94141 19.9843 7.28125 19.9961 9.99608 19.9961C12.7109 19.9961 13.0507 19.9843 14.1172 19.9375C15.1797 19.8906 15.9102 19.7187 16.543 19.4727C17.1992 19.2187 17.7578 18.875 18.3125 18.3203C18.8672 17.7657 19.2109 17.207 19.4648 16.5507C19.7109 15.9141 19.8828 15.1875 19.9297 14.125C19.9766 13.0586 19.9883 12.7187 19.9883 10.0039C19.9883 7.28907 19.9766 6.94922 19.9297 5.88282C19.8828 4.82032 19.7109 4.08984 19.4648 3.45703C19.2188 2.79297 18.8789 2.23437 18.3203 1.67968C17.7657 1.125 17.207 0.78125 16.5508 0.527343C15.9141 0.28125 15.1875 0.109375 14.125 0.0625C13.0547 0.0117188 12.7148 0 10 0Z" fill="#333333"/>
<path d="M10 4.86328C7.16406 4.86328 4.86328 7.16406 4.86328 10C4.86328 12.8359 7.16406 15.1367 10 15.1367C12.8359 15.1367 15.1367 12.8359 15.1367 10C15.1367 7.16406 12.8359 4.86328 10 4.86328ZM10 13.332C8.16016 13.332 6.66796 11.8398 6.66796 10C6.66796 8.16016 8.16016 6.66796 10 6.66796C11.8398 6.66796 13.332 8.16016 13.332 10C13.332 11.8398 11.8398 13.332 10 13.332Z" fill="#333333"/>
<path d="M16.539 4.6604C16.539 5.32447 16 5.85962 15.3398 5.85962C14.6757 5.85962 14.1406 5.32056 14.1406 4.6604C14.1406 3.99634 14.6796 3.46118 15.3398 3.46118C16 3.46118 16.539 4.00025 16.539 4.6604Z" fill="#333333"/>
</g>
<defs>
<clipPath id="clip0_103_1039">
<rect width="20" height="20" fill="white"/>
</clipPath>
</defs>
</svg>
