<svg width="19" height="32" viewBox="0 0 19 32" fill="none" xmlns="http://www.w3.org/2000/svg">
<path d="M17.9398 0.669825C18.3521 1.09884 18.5837 1.68064 18.5837 2.28727C18.5837 2.8939 18.3521 3.47569 17.9398 3.90471L6.30024 16.0138L17.9398 28.1229C18.3404 28.5544 18.5621 29.1323 18.5571 29.7321C18.552 30.332 18.3208 30.9058 17.913 31.3299C17.5053 31.7541 16.9538 31.9947 16.3772 31.9999C15.8006 32.0051 15.2451 31.7745 14.8304 31.3578L1.63604 17.6313C1.22378 17.2022 0.992188 16.6204 0.992188 16.0138C0.992188 15.4072 1.22378 14.8254 1.63604 14.3964L14.8304 0.669825C15.2428 0.240936 15.802 0 16.3851 0C16.9682 0 17.5275 0.240936 17.9398 0.669825Z" fill="#0D0D0D"/>
</svg>
