<svg width="19" height="19" viewBox="0 0 19 19" fill="none" xmlns="http://www.w3.org/2000/svg">
<path d="M9.33093 0C9.64027 0 9.93693 0.122885 10.1557 0.341621C10.3744 0.560357 10.4973 0.857026 10.4973 1.16637V8.16456H17.4955C17.8048 8.16456 18.1015 8.28745 18.3202 8.50618C18.539 8.72492 18.6619 9.02159 18.6619 9.33093C18.6619 9.64027 18.539 9.93693 18.3202 10.1557C18.1015 10.3744 17.8048 10.4973 17.4955 10.4973H10.4973V17.4955C10.4973 17.8048 10.3744 18.1015 10.1557 18.3202C9.93693 18.539 9.64027 18.6619 9.33093 18.6619C9.02159 18.6619 8.72492 18.539 8.50618 18.3202C8.28745 18.1015 8.16456 17.8048 8.16456 17.4955V10.4973H1.16637C0.857026 10.4973 0.560357 10.3744 0.341621 10.1557C0.122885 9.93693 0 9.64027 0 9.33093C0 9.02159 0.122885 8.72492 0.341621 8.50618C0.560357 8.28745 0.857026 8.16456 1.16637 8.16456H8.16456V1.16637C8.16456 0.857026 8.28745 0.560357 8.50618 0.341621C8.72492 0.122885 9.02159 0 9.33093 0Z" fill="#0D0D0D"/>
</svg>
