<svg width="19" height="32" viewBox="0 0 19 32" fill="none" xmlns="http://www.w3.org/2000/svg">
<path d="M0.669825 31.3302C0.240936 30.9012 0 30.3194 0 29.7127C0 29.1061 0.240936 28.5243 0.669825 28.0953L12.7789 15.9862L0.669825 3.87709C0.253091 3.44561 0.0224983 2.86772 0.0277107 2.26788C0.0329232 1.66804 0.273524 1.09424 0.697692 0.670069C1.12186 0.245901 1.69566 0.00529895 2.2955 8.64829e-05C2.89534 -0.00512599 3.47324 0.225468 3.90471 0.642201L17.6313 14.3687C18.0601 14.7978 18.3011 15.3796 18.3011 15.9862C18.3011 16.5928 18.0601 17.1746 17.6313 17.6036L3.90471 31.3302C3.47569 31.7591 2.8939 32 2.28727 32C1.68064 32 1.09884 31.7591 0.669825 31.3302Z" fill="#0D0D0D"/>
</svg>
